<?xml version="1.0" standalone="no"?>
<!DOCTYPE svg PUBLIC "-//W3C//DTD SVG 20010904//EN"
 "http://www.w3.org/TR/2001/REC-SVG-20010904/DTD/svg10.dtd">
<svg version="1.0" xmlns="http://www.w3.org/2000/svg"
 width="800.000000pt" height="600.000000pt" viewBox="0 0 800.000000 600.000000"
 preserveAspectRatio="xMidYMid meet">

<g transform="translate(0.000000,600.000000) scale(0.100000,-0.100000)"
fill="#000000" stroke="none">
<path d="M4888 3841 c-98 -22 -222 -61 -315 -101 l-62 -26 -148 18 c-236 28
-210 33 -361 -81 -288 -218 -642 -543 -642 -589 0 -25 6 -26 112 -13 174 22
178 22 178 7 0 -8 -15 -32 -34 -54 -32 -40 -33 -42 -24 -99 13 -87 58 -170
127 -237 l60 -57 66 7 c36 4 65 3 65 -2 0 -5 -36 -58 -80 -119 -44 -60 -80
-114 -80 -118 0 -32 127 -6 394 80 160 52 479 174 556 213 19 10 42 26 52 36
17 20 110 225 104 231 -2 2 -25 -6 -52 -17 -122 -53 -438 -149 -450 -137 -2 2
45 23 104 46 202 82 420 198 551 294 81 59 216 192 267 263 92 129 184 373
154 409 -47 57 -367 84 -542 46z m379 -89 c8 -5 -16 -13 -64 -21 -194 -33
-455 -122 -666 -228 -174 -87 -462 -268 -677 -426 -52 -38 -102 -74 -110 -80
-38 -27 147 156 250 247 359 317 649 471 966 515 74 11 278 5 301 -7z"/>
<path d="M3389 2908 l-75 -19 -375 -376 c-206 -206 -365 -372 -354 -369 11 3
90 23 175 46 85 22 305 80 489 129 l334 89 58 58 58 58 -68 71 c-75 80 -121
162 -147 265 -9 36 -17 65 -18 66 0 0 -35 -8 -77 -18z"/>
</g>
</svg>
