<?xml version="1.0" standalone="no"?>
<!DOCTYPE svg PUBLIC "-//W3C//DTD SVG 20010904//EN"
 "http://www.w3.org/TR/2001/REC-SVG-20010904/DTD/svg10.dtd">
<svg version="1.0" xmlns="http://www.w3.org/2000/svg"
 width="1000.000000pt" height="1080.000000pt" viewBox="0 0 1000.000000 1080.000000"
 preserveAspectRatio="xMidYMid meet">

<g transform="translate(0.000000,1080.000000) scale(0.100000,-0.100000)"
fill="#000000" stroke="none">
<path d="M4907 10100 c-155 -103 -275 -212 -396 -355 -70 -82 -186 -244 -180
-249 13 -10 166 -60 247 -80 383 -98 740 -82 1007 43 l86 40 -51 76 c-105 155
-276 340 -415 446 -56 43 -199 139 -207 139 -2 0 -43 -27 -91 -60z"/>
<path d="M5635 9439 c-113 -63 -311 -115 -495 -129 -250 -19 -524 30 -797 141
-41 17 -38 19 -132 -161 -294 -569 -448 -1275 -497 -2282 l-6 -138 -425 -565
-424 -566 46 -852 c25 -469 48 -867 51 -885 l5 -33 57 3 57 3 165 577 165 577
179 141 c98 78 179 140 181 138 2 -1 15 -102 29 -223 14 -121 31 -248 37 -283
l11 -62 27 37 c46 62 163 165 239 210 40 24 76 43 80 43 5 0 57 -125 116 -277
60 -153 119 -302 132 -330 l23 -53 541 0 541 0 23 53 c13 28 72 177 131 330
60 152 112 277 117 277 4 0 40 -19 80 -42 76 -46 193 -149 239 -211 l27 -37
11 62 c6 35 23 162 37 283 14 121 27 222 29 223 2 2 83 -60 181 -138 l179
-141 165 -577 165 -577 57 -3 57 -3 5 33 c3 18 26 416 51 885 l46 852 -425
566 -424 565 -6 138 c-42 863 -159 1493 -377 2023 -52 128 -177 378 -207 415
l-17 21 -50 -28z m-506 -444 c200 -48 365 -204 424 -402 36 -119 28 -265 -19
-380 -66 -160 -222 -294 -391 -338 -73 -19 -213 -19 -286 0 -132 34 -257 123
-330 232 -56 84 -72 123 -93 221 -38 185 21 370 165 513 144 143 337 199 530
154z"/>
<path d="M4863 8821 c-108 -40 -186 -112 -237 -221 -28 -59 -31 -74 -31 -165
1 -129 24 -191 103 -276 168 -182 436 -182 604 0 79 85 102 147 103 277 0 96
-2 103 -38 176 -43 89 -107 152 -195 194 -77 38 -229 45 -309 15z"/>
<path d="M2672 5488 c-17 -17 -17 -969 0 -986 14 -14 76 -16 96 -4 10 7 12
113 12 497 0 384 -2 490 -12 497 -20 12 -82 10 -96 -4z"/>
<path d="M7226 5485 c-13 -14 -15 -77 -16 -486 0 -311 3 -476 10 -489 8 -15
21 -20 53 -20 24 0 48 5 55 12 17 17 17 969 0 986 -17 17 -84 15 -102 -3z"/>
<path d="M3487 5092 c-15 -17 -17 -78 -17 -670 0 -721 -4 -682 65 -682 69 0
65 -39 65 684 0 620 -1 654 -18 669 -25 22 -75 21 -95 -1z"/>
<path d="M6417 5092 c-15 -17 -17 -78 -17 -670 0 -721 -4 -682 65 -682 69 0
65 -39 65 684 0 620 -1 654 -18 669 -25 22 -75 21 -95 -1z"/>
<path d="M3957 4692 c-16 -17 -17 -79 -17 -684 0 -631 1 -666 18 -681 23 -21
76 -22 96 -1 14 14 16 90 16 684 0 594 -2 670 -16 684 -21 22 -77 20 -97 -2z"/>
<path d="M5946 4694 c-14 -14 -16 -90 -16 -689 0 -656 1 -675 19 -685 30 -16
76 -12 94 8 16 17 17 79 17 684 0 631 -1 666 -18 681 -23 21 -76 22 -96 1z"/>
<path d="M4330 4387 l-25 -13 0 -734 0 -734 26 -15 c22 -12 31 -12 57 -2 16 7
33 22 36 34 8 32 7 1430 -2 1443 -8 12 -46 34 -59 34 -4 0 -19 -6 -33 -13z"/>
<path d="M4868 4338 c-129 -224 -229 -503 -245 -683 -8 -94 22 -213 80 -314
46 -81 170 -219 248 -277 l49 -36 49 36 c27 20 84 73 125 117 190 201 239 385
172 639 -48 182 -118 351 -214 518 l-36 62 -96 0 -96 0 -36 -62z"/>
<path d="M5605 4388 c-11 -6 -23 -16 -27 -22 -4 -6 -8 -334 -8 -728 0 -625 2
-718 15 -732 24 -23 52 -28 82 -14 l28 13 3 731 c2 579 0 734 -10 742 -22 17
-62 23 -83 10z"/>
<path d="M2672 4238 c-9 -9 -12 -134 -12 -499 0 -542 -6 -499 70 -499 21 0 41
4 44 9 3 5 6 228 6 496 1 387 -2 490 -12 497 -20 12 -82 10 -96 -4z"/>
<path d="M7226 4235 c-13 -14 -15 -77 -16 -486 0 -310 3 -476 10 -489 8 -15
21 -20 50 -20 76 0 70 -43 70 501 0 473 -1 489 -19 499 -29 15 -77 12 -95 -5z"/>
<path d="M3052 3762 c-9 -7 -12 -59 -10 -228 l3 -219 55 0 55 0 3 219 c3 241
4 236 -58 236 -19 0 -41 -4 -48 -8z"/>
<path d="M6852 3762 c-9 -7 -12 -59 -10 -228 l3 -219 55 0 55 0 3 219 c3 241
4 236 -58 236 -19 0 -41 -4 -48 -8z"/>
<path d="M3482 3532 c-9 -7 -12 -64 -10 -253 l3 -244 60 0 60 0 3 244 c2 189
-1 246 -10 253 -7 4 -31 8 -53 8 -22 0 -46 -4 -53 -8z"/>
<path d="M6412 3532 c-9 -7 -12 -64 -10 -253 l3 -244 60 0 60 0 3 244 c2 189
-1 246 -10 253 -7 4 -31 8 -53 8 -22 0 -46 -4 -53 -8z"/>
<path d="M3980 3098 c-13 -5 -28 -14 -32 -21 -4 -7 -8 -321 -8 -699 0 -675 0
-688 20 -708 24 -24 57 -26 88 -4 l22 15 0 698 c0 547 -3 701 -12 708 -21 16
-52 21 -78 11z"/>
<path d="M5960 3097 l-25 -13 -3 -699 -2 -700 21 -17 c28 -24 64 -23 89 2 20
20 20 33 20 709 0 614 -2 691 -16 705 -8 9 -19 16 -24 16 -5 0 -14 2 -22 5 -7
3 -24 -1 -38 -8z"/>
<path d="M2667 3043 c-4 -3 -7 -104 -7 -224 0 -239 -3 -229 63 -229 18 0 37 4
44 8 19 12 23 440 5 447 -20 7 -98 6 -105 -2z"/>
<path d="M7223 3044 c-10 -4 -13 -58 -13 -219 0 -239 -1 -235 72 -235 60 0 59
-4 56 236 l-3 219 -50 2 c-27 1 -56 0 -62 -3z"/>
<path d="M4933 2848 c-48 -63 -122 -236 -153 -358 -44 -172 -9 -292 126 -427
43 -43 81 -73 93 -73 12 0 51 31 95 74 135 136 169 248 126 421 -23 97 -75
226 -125 315 l-31 55 -60 3 c-41 2 -64 -1 -71 -10z"/>
<path d="M4302 2593 l3 -138 60 0 60 0 0 135 0 135 -63 3 -63 3 3 -138z"/>
<path d="M5574 2717 c-2 -7 -3 -69 -2 -138 l3 -124 60 0 60 0 3 138 3 137 -61
0 c-41 0 -62 -4 -66 -13z"/>
<path d="M4305 2107 c-3 -6 -4 -163 -3 -347 l3 -335 48 -3 c27 -2 55 2 63 9
19 16 21 658 2 677 -16 16 -107 16 -113 -1z"/>
<path d="M5582 2108 c-19 -19 -17 -661 2 -677 8 -7 36 -11 63 -9 l48 3 0 345
0 345 -50 3 c-30 2 -55 -2 -63 -10z"/>
<path d="M4946 1808 c-54 -83 -111 -269 -101 -328 4 -19 18 -57 33 -83 25 -47
102 -127 122 -127 21 0 97 80 125 132 22 40 28 65 28 107 -1 64 -39 191 -81
266 -25 46 -30 50 -69 53 -35 3 -44 -1 -57 -20z"/>
<path d="M0 400 l0 -400 5000 0 5000 0 0 400 0 400 -5000 0 -5000 0 0 -400z
m2192 123 c23 -20 23 -57 1 -74 -15 -11 -16 -11 -5 1 27 31 11 72 -33 83 -19
4 -19 5 -1 6 11 0 28 -6 38 -16z m-69 -8 c-3 -9 -8 -14 -10 -11 -3 3 -2 9 2
15 9 16 15 13 8 -4z m-1760 -114 c22 -61 43 -108 47 -104 4 4 24 56 45 116 21
59 42 107 47 107 11 0 9 -5 -42 -149 -23 -64 -44 -107 -53 -109 -15 -3 -17 0
-67 143 -15 44 -31 88 -36 99 -5 13 -3 17 6 14 8 -2 32 -55 53 -117z m517 89
c0 -23 4 -30 20 -30 11 0 20 -4 20 -10 0 -5 -10 -10 -21 -10 -20 0 -21 -4 -17
-71 3 -55 8 -74 23 -85 23 -17 14 -29 -13 -15 -11 6 -22 25 -26 42 -10 51 -7
209 4 209 6 0 10 -13 10 -30z m515 16 c25 -11 33 -19 29 -30 -7 -19 -5 -19
-40 -1 -36 18 -55 19 -78 2 -28 -21 -9 -45 49 -62 87 -25 108 -74 54 -127 -29
-29 -33 -30 -90 -25 -68 6 -72 8 -64 29 5 13 12 14 40 5 50 -15 100 1 100 33
0 16 -8 28 -25 36 -87 40 -105 51 -108 67 -14 70 53 106 133 73z m105 -16 c0
-25 4 -30 25 -30 16 0 25 -6 25 -15 0 -9 -9 -15 -25 -15 -24 0 -25 -3 -25 -60
0 -55 2 -62 25 -72 14 -6 25 -15 25 -20 0 -18 -31 -20 -55 -4 -24 16 -25 20
-25 131 0 96 3 115 15 115 10 0 15 -10 15 -30z m482 -32 l3 -62 36 32 c20 18
45 32 55 32 14 0 9 -9 -21 -40 l-39 -40 42 -60 c40 -57 41 -60 20 -60 -16 0
-32 14 -53 45 -16 25 -33 45 -37 45 -5 0 -8 -20 -8 -45 0 -38 -3 -45 -20 -45
-19 0 -20 7 -20 130 0 122 1 130 20 130 16 0 19 -8 22 -62z m193 30 c1 -20 -2
-24 -11 -17 -8 7 -14 6 -17 -3 -3 -7 -6 2 -6 20 -1 27 3 33 17 30 11 -2 17
-13 17 -30z m-44 -35 c13 -16 12 -17 -3 -4 -17 13 -22 21 -14 21 2 0 10 -8 17
-17z m-1502 -19 c12 -15 21 -40 21 -55 0 -29 0 -29 -65 -29 -72 0 -83 -12 -44
-51 17 -17 30 -20 65 -16 43 4 59 -5 28 -17 -45 -17 -106 3 -123 41 -45 98 56
206 118 127z m191 16 c17 -11 10 -13 -40 -10 -47 2 -75 -28 -75 -80 0 -55 26
-80 82 -80 27 0 42 -4 38 -10 -9 -15 -78 -12 -102 5 -50 35 -50 135 0 170 24
17 74 20 97 5z m265 -13 c20 -16 28 -35 32 -69 5 -42 3 -50 -25 -78 -41 -41
-83 -41 -124 0 -28 28 -30 36 -25 78 9 82 84 119 142 69z m85 7 c0 -14 2 -14
22 0 24 17 38 20 38 9 0 -5 -14 -16 -30 -25 -29 -17 -30 -19 -30 -93 0 -43 -4
-75 -10 -75 -6 0 -10 40 -10 100 0 60 4 100 10 100 6 0 10 -7 10 -16z m537 1
c30 -21 44 -75 32 -120 -25 -88 -143 -88 -168 0 -20 72 20 135 84 135 17 0 40
-7 52 -15z m198 -5 c0 -10 -8 -14 -27 -12 -58 6 -91 -42 -67 -100 11 -28 36
-40 74 -35 12 1 20 -4 20 -13 0 -19 -48 -25 -85 -10 -63 26 -68 148 -6 179 31
15 91 9 91 -9z m5384 -83 c8 -26 17 -47 21 -47 4 0 13 21 21 47 8 25 20 48 26
50 8 3 4 -21 -11 -64 -13 -38 -29 -68 -36 -68 -7 0 -23 30 -36 68 -15 43 -19
67 -11 64 6 -2 18 -25 26 -50z m638 38 c2 -6 -9 -11 -23 -10 -39 0 -42 -23 -5
-36 34 -12 49 -43 31 -64 -13 -16 -38 -19 -64 -9 -27 10 -18 22 17 20 38 -1
43 19 8 37 -36 18 -48 42 -31 62 14 17 61 17 67 0z m333 -20 c0 -35 16 -47 26
-20 4 8 13 15 22 15 13 0 13 -3 -2 -19 -16 -18 -16 -21 -1 -50 19 -38 8 -40
-22 -3 l-22 27 -1 -27 c0 -16 -4 -28 -10 -28 -6 0 -10 30 -10 70 0 40 4 70 10
70 6 0 10 -16 10 -35z m580 32 c0 -4 -34 -104 -45 -136 -3 -8 -8 -11 -11 -8
-8 7 38 147 48 147 4 0 8 -2 8 -3z m98 -9 c21 -21 13 -45 -25 -77 l-38 -30 43
-1 c23 0 42 -4 42 -10 0 -5 -22 -10 -50 -10 -62 0 -65 15 -14 63 42 40 39 62
-8 53 -26 -5 -29 -4 -18 9 15 18 51 20 68 3z m82 -48 c0 -33 4 -60 10 -60 6 0
10 -4 10 -10 0 -5 -13 -10 -30 -10 -16 0 -30 5 -30 10 0 6 5 10 10 10 6 0 10
20 10 45 0 38 -2 43 -17 38 -16 -6 -16 -4 1 15 29 34 36 27 36 -38z m122 8 c2
-29 2 -61 0 -70 -5 -22 -22 -24 -22 -3 0 10 -10 15 -30 15 -16 0 -30 3 -30 6
0 16 56 104 67 104 6 0 13 -22 15 -52z m110 35 c39 -35 8 -122 -44 -123 -10 0
-18 5 -18 10 0 6 9 10 20 10 10 0 24 9 31 21 9 18 8 20 -9 15 -38 -12 -68 44
-40 72 17 17 38 15 60 -5z m128 7 c0 -5 -11 -10 -25 -10 -15 0 -29 -8 -36 -22
-10 -18 -9 -20 6 -14 23 8 65 -19 65 -42 0 -41 -48 -56 -82 -25 -24 21 -23 64
3 97 20 25 69 37 69 16z m100 -9 c-5 -11 -15 -23 -20 -26 -6 -4 -1 -14 12 -25
20 -15 21 -21 10 -44 -11 -26 -34 -32 -66 -20 -28 11 -17 24 14 18 22 -5 31
-2 36 11 6 16 -3 28 -31 39 -6 2 -5 9 3 17 18 19 15 29 -8 29 -11 0 -20 5 -20
10 0 6 18 10 40 10 37 0 40 -2 30 -19z m110 0 c-5 -11 -15 -23 -20 -26 -6 -4
-1 -14 12 -25 20 -15 21 -21 10 -44 -11 -26 -34 -32 -66 -20 -28 11 -17 24 14
18 22 -5 31 -2 36 11 6 16 -3 28 -31 39 -6 2 -5 9 3 17 18 19 15 29 -8 29 -11
0 -20 5 -20 10 0 6 18 10 40 10 37 0 40 -2 30 -19z m110 9 c0 -5 -11 -10 -25
-10 -32 0 -32 -16 -1 -24 27 -7 41 -35 31 -65 -7 -23 -37 -35 -65 -26 -31 10
-24 23 13 21 28 -1 32 2 32 24 0 21 -4 25 -30 24 -29 -1 -30 0 -27 32 4 31 7
34 38 34 19 0 34 -4 34 -10z m-2070 -35 c9 -10 9 -15 1 -15 -15 0 -14 -57 2
-63 6 -2 9 -7 6 -11 -15 -17 -37 8 -41 47 -7 58 5 74 32 42z m360 0 c9 -10 9
-15 1 -15 -15 0 -14 -57 2 -63 6 -2 9 -7 6 -11 -15 -17 -37 8 -41 47 -7 58 5
74 32 42z m-532 -7 c23 -23 13 -38 -24 -38 -46 0 -41 -23 7 -30 27 -4 30 -7
16 -13 -28 -11 -44 -9 -61 9 -32 31 -14 84 29 84 12 0 26 -5 33 -12z m109 5
c14 -6 10 -9 -17 -13 -29 -4 -35 -9 -35 -30 0 -21 5 -26 33 -28 36 -4 34 -22
-3 -22 -28 0 -55 24 -55 50 0 22 25 50 45 50 7 0 22 -3 32 -7z m177 -9 c31
-30 9 -84 -34 -84 -24 0 -50 26 -50 50 0 24 26 50 50 50 10 0 26 -7 34 -16z
m86 6 c0 -4 -7 -10 -15 -14 -9 -3 -15 -19 -15 -41 0 -19 -4 -35 -10 -35 -5 0
-10 22 -10 49 0 45 2 49 25 49 14 0 25 -4 25 -8z m274 -6 c31 -30 9 -84 -34
-84 -24 0 -50 26 -50 50 0 24 26 50 50 50 10 0 26 -7 34 -16z m121 7 c3 -5 -9
-11 -27 -13 -28 -2 -33 -7 -33 -28 0 -21 5 -26 33 -28 36 -4 34 -22 -3 -22
-28 0 -55 24 -55 50 0 37 67 69 85 41z m250 0 c3 -5 -9 -11 -27 -13 -28 -2
-33 -7 -33 -28 0 -21 5 -26 33 -28 36 -4 34 -22 -3 -22 -28 0 -55 24 -55 50 0
37 67 69 85 41z m99 -7 c21 -20 20 -43 -1 -66 -20 -22 -46 -23 -67 -2 -31 30
-9 84 34 84 10 0 26 -7 34 -16z m113 4 c7 -5 14 -5 18 2 10 16 42 12 49 -6 10
-25 7 -84 -4 -84 -5 0 -10 18 -10 41 0 33 -3 40 -17 37 -13 -2 -19 -14 -21
-41 -4 -50 -22 -47 -22 4 0 36 -2 40 -22 37 -19 -2 -24 -10 -26 -40 -5 -55
-22 -46 -22 10 0 48 0 49 33 49 17 0 37 -4 44 -9z m-327 -78 c0 -5 -4 -10 -10
-10 -5 0 -10 5 -10 10 0 6 5 10 10 10 6 0 10 -4 10 -10z"/>
<path d="M2150 500 c0 -5 5 -10 10 -10 6 0 10 5 10 10 0 6 -4 10 -10 10 -5 0
-10 -4 -10 -10z"/>
<path d="M536 418 c-28 -39 -21 -48 39 -48 59 0 67 9 45 51 -15 27 -64 25 -84
-3z"/>
<path d="M986 424 c-50 -50 -21 -144 44 -144 48 0 80 50 66 104 -13 53 -75 75
-110 40z"/>
<path d="M1616 408 c-32 -46 -8 -118 39 -118 28 0 55 34 55 70 0 36 -27 70
-55 70 -13 0 -31 -10 -39 -22z"/>
<path d="M9097 350 c-18 -29 -18 -30 2 -30 17 0 21 6 21 30 0 17 -1 30 -3 30
-1 0 -11 -13 -20 -30z"/>
<path d="M9204 375 c-4 -9 -2 -21 4 -27 15 -15 44 -1 40 19 -4 23 -36 29 -44
8z"/>
<path d="M9314 325 c-4 -9 -2 -21 4 -27 16 -16 47 -5 47 17 0 26 -42 34 -51
10z"/>
<path d="M7405 340 c-4 -6 5 -10 19 -10 14 0 26 5 26 10 0 6 -9 10 -19 10 -11
0 -23 -4 -26 -10z"/>
<path d="M7684 336 c-10 -26 4 -48 28 -44 17 2 23 10 23 28 0 18 -6 26 -23 28
-13 2 -25 -3 -28 -12z"/>
<path d="M8044 336 c-10 -26 4 -48 28 -44 17 2 23 10 23 28 0 18 -6 26 -23 28
-13 2 -25 -3 -28 -12z"/>
<path d="M8514 336 c-10 -26 4 -48 28 -44 17 2 23 10 23 28 0 18 -6 26 -23 28
-13 2 -25 -3 -28 -12z"/>
</g>
</svg>
