<?xml version="1.0" standalone="no"?>
<!DOCTYPE svg PUBLIC "-//W3C//DTD SVG 20010904//EN"
 "http://www.w3.org/TR/2001/REC-SVG-20010904/DTD/svg10.dtd">
<svg version="1.0" xmlns="http://www.w3.org/2000/svg"
 width="820.000000pt" height="879.000000pt" viewBox="0 0 820.000000 879.000000"
 preserveAspectRatio="xMidYMid meet">

<g transform="translate(0.000000,879.000000) scale(0.100000,-0.100000)"
fill="#000000" stroke="none">
<path d="M7175 8369 c-464 -48 -997 -226 -1590 -531 -373 -193 -789 -493
-1222 -885 -252 -227 -773 -764 -1025 -1056 -96 -111 -315 -393 -399 -515
l-16 -23 -364 32 c-326 28 -391 30 -624 26 -227 -4 -269 -8 -334 -26 -96 -28
-108 -35 -300 -165 -204 -138 -237 -167 -303 -269 -83 -130 -354 -698 -465
-977 -278 -694 -404 -1027 -419 -1107 -23 -127 -3 -213 68 -279 60 -57 94 -69
193 -68 89 0 94 2 330 91 132 50 380 144 550 208 l310 117 588 -594 c323 -326
595 -603 603 -615 15 -21 6 -50 -175 -549 -106 -289 -199 -556 -207 -592 -49
-207 51 -375 231 -390 121 -9 154 3 1275 496 421 184 483 215 694 342 284 170
415 275 448 358 34 84 170 513 184 582 36 171 27 432 -35 963 l-17 148 176
137 c324 252 507 417 841 758 336 344 662 727 974 1144 271 362 475 727 638
1140 238 603 337 1140 307 1662 -20 354 -43 395 -238 425 -117 18 -548 26
-677 12z m-855 -1310 c376 -104 591 -521 474 -920 -52 -176 -198 -352 -354
-427 -208 -99 -445 -97 -650 5 -106 53 -230 178 -288 290 -60 115 -84 213 -85
348 -2 174 37 300 135 443 166 238 473 343 768 261z"/>
</g>
</svg>
